<?xml version="1.0" encoding="UTF-8"?>
<svg id="Layer_1" data-name="Layer 1" xmlns="http://www.w3.org/2000/svg" viewBox="0 0 32 32">
  <defs>
    <style>
      .cls-1 {
        fill: #ffbf00;
        fill-rule: evenodd;
      }
    </style>
  </defs>
  <path class="cls-1" d="m5.28,14.7c-.34,0-.66-.18-.83-.48L.92,8.13c-.17-.3-.17-.66,0-.96L4.45,1.08c.17-.29.48-.48.82-.48h7.03c.34,0,.66.18.83.48l3.51,6.09c.17.3.17.66,0,.96l-3.51,6.09c-.17.3-.49.48-.83.48h-7.02Zm22.27-5.2l3.54,6.11h0c.17.3.17.66,0,.96l-3.51,6.07c-.17.3-.49.48-.83.48h-7.06c-.34,0-.66-.18-.83-.48l-3.51-6.09c-.17-.3-.17-.66,0-.96l3.51-6.09c.17-.3.49-.48.83-.48h7.03c.34,0,.66.18.83.48h0ZM5.27,31.3h7.03c.34,0,.66-.18.83-.48l3.51-6.09c.17-.3.17-.66,0-.96l-3.51-6.09c-.17-.3-.49-.48-.83-.48h-7.02c-.34,0-.66.18-.83.48l-3.53,6.09c-.17.3-.17.66,0,.96l3.53,6.09c.17.29.48.48.82.48h0Zm0,.11"/>
</svg>